<svg id="visual" viewBox="0 0 900 600" width="900" height="600" xmlns="http://www.w3.org/2000/svg" xmlns:xlink="http://www.w3.org/1999/xlink" version="1.1"><rect x="0" y="0" width="900" height="600" fill="#FB532C"></rect><path d="M0 417L82 409L164 414L245 366L327 388L409 418L491 409L573 371L655 418L736 404L818 365L900 391L900 601L818 601L736 601L655 601L573 601L491 601L409 601L327 601L245 601L164 601L82 601L0 601Z" fill="#e72c27"></path><path d="M0 411L82 397L164 398L245 441L327 445L409 403L491 403L573 433L655 417L736 442L818 415L900 418L900 601L818 601L736 601L655 601L573 601L491 601L409 601L327 601L245 601L164 601L82 601L0 601Z" fill="#c72423"></path><path d="M0 465L82 442L164 462L245 465L327 431L409 436L491 463L573 460L655 469L736 450L818 431L900 466L900 601L818 601L736 601L655 601L573 601L491 601L409 601L327 601L245 601L164 601L82 601L0 601Z" fill="#a81c1f"></path><path d="M0 484L82 480L164 487L245 486L327 466L409 478L491 485L573 489L655 484L736 477L818 480L900 497L900 601L818 601L736 601L655 601L573 601L491 601L409 601L327 601L245 601L164 601L82 601L0 601Z" fill="#8a161a"></path><path d="M0 520L82 505L164 490L245 490L327 500L409 499L491 503L573 521L655 492L736 501L818 507L900 493L900 601L818 601L736 601L655 601L573 601L491 601L409 601L327 601L245 601L164 601L82 601L0 601Z" fill="#6d1015"></path><path d="M0 522L82 520L164 546L245 545L327 545L409 520L491 535L573 532L655 545L736 524L818 526L900 533L900 601L818 601L736 601L655 601L573 601L491 601L409 601L327 601L245 601L164 601L82 601L0 601Z" fill="#510b0e"></path><path d="M0 564L82 552L164 560L245 566L327 557L409 556L491 555L573 559L655 551L736 560L818 555L900 551L900 601L818 601L736 601L655 601L573 601L491 601L409 601L327 601L245 601L164 601L82 601L0 601Z" fill="#370601"></path></svg>