<svg width="26" height="31" viewBox="0 0 26 31" fill="none" xmlns="http://www.w3.org/2000/svg">
<path d="M9.7974 4.74707C8.37552 7.07812 7.55625 9.82617 7.55625 12.7656C7.55625 19.4648 11.8083 25.166 17.7396 27.2373C16.9 27.4287 16.0266 27.5312 15.126 27.5312C8.57187 27.5312 3.25 22.1514 3.25 15.5C3.25 10.79 5.91771 6.72266 9.80417 4.74707H9.7974ZM14.0021 0.235352C6.16823 0.816406 0 7.42676 0 15.5C0 23.9561 6.77083 30.8125 15.1328 30.8125C18.3693 30.8125 21.362 29.7871 23.8266 28.0371C23.9552 27.9482 24.0771 27.8525 24.199 27.7637C24.524 27.5176 24.8354 27.2578 25.1401 26.9844C25.3229 26.8203 25.499 26.6562 25.675 26.4854C26.0135 26.1504 26.1016 25.6309 25.8849 25.207C25.6682 24.7832 25.201 24.5439 24.7339 24.626C24.4833 24.667 24.2328 24.708 23.9823 24.7354C23.6438 24.7695 23.2984 24.7969 22.9464 24.8037C22.8651 24.8037 22.7771 24.8037 22.6958 24.8037H22.6755C16.1214 24.79 10.813 19.4102 10.813 12.7725C10.813 9.02637 12.499 5.68359 15.1531 3.47559C15.2208 3.41406 15.2953 3.35937 15.3698 3.29785C15.6406 3.0791 15.925 2.87402 16.2161 2.68262C16.426 2.5459 16.6427 2.40918 16.8661 2.28613C17.2792 2.04688 17.4891 1.56836 17.3875 1.10352C17.2859 0.638672 16.8932 0.290039 16.4193 0.249023C16.1755 0.228516 15.9385 0.214844 15.6948 0.208008C15.512 0.201172 15.3224 0.201172 15.1396 0.201172C14.9161 0.201172 14.6995 0.208008 14.476 0.214844C14.3203 0.22168 14.1646 0.228516 14.0089 0.242187L14.0021 0.235352Z" fill="white"/>
</svg>
